HIERARCHY
ROOT root
{
	OFFSET 0.000000 0.000000 0.000000
	CHANNELS 6 Xposition Yposition Zposition Zrotation Yrotation Xrotation
	JOINT lhip
	{
		OFFSET 0.058581 -0.082280 -0.017664
		CHANNELS 3 Zrotation Yrotation Xrotation
		JOINT lknee
		{
			OFFSET 0.043451 -0.386469 0.008037
			CHANNELS 3 Zrotation Yrotation Xrotation
			JOINT lankle
			{
				OFFSET -0.014790 -0.426874 -0.037428
				CHANNELS 3 Zrotation Yrotation Xrotation
				JOINT ltoe
				{
					OFFSET 0.041054 -0.060286 0.122042
					CHANNELS 3 Zrotation Yrotation Xrotation
					End Site
					{
						OFFSET 0.000000 0.000000 0.000000
					}
				}
			}
		}
	}
	JOINT rhip
	{
		OFFSET -0.060310 -0.090513 -0.013543
		CHANNELS 3 Zrotation Yrotation Xrotation
		JOINT rknee
		{
			OFFSET -0.043257 -0.383688 -0.004843
			CHANNELS 3 Zrotation Yrotation Xrotation
			JOINT rankle
			{
				OFFSET 0.019056 -0.420046 -0.034562
				CHANNELS 3 Zrotation Yrotation Xrotation
				JOINT rtoe
				{
					OFFSET -0.034840 -0.062106 0.130323
					CHANNELS 3 Zrotation Yrotation Xrotation
					End Site
					{
						OFFSET 0.000000 0.000000 0.000000
					}
				}
			}
		}
	}
	JOINT lowerback
	{
		OFFSET 0.004439 0.124404 -0.038385
		CHANNELS 3 Zrotation Yrotation Xrotation
		JOINT upperback
		{
			OFFSET 0.004488 0.137956 0.026820
			CHANNELS 3 Zrotation Yrotation Xrotation
			JOINT chest
			{
				OFFSET -0.002265 0.056032 0.002855
				CHANNELS 3 Zrotation Yrotation Xrotation
				JOINT lowerneck
				{
					OFFSET -0.013390 0.211636 -0.033468
					CHANNELS 3 Zrotation Yrotation Xrotation
					JOINT upperneck
					{
						OFFSET 0.010113 0.088937 0.050410
						CHANNELS 3 Zrotation Yrotation Xrotation
						End Site
						{
							OFFSET 0.000000 0.000000 0.000000
						}
					}
				}
				JOINT lclavicle
				{
					OFFSET 0.071702 0.114000 -0.018898
					CHANNELS 3 Zrotation Yrotation Xrotation
					JOINT lshoulder
					{
						OFFSET 0.122921 0.045205 -0.019046
						CHANNELS 3 Zrotation Yrotation Xrotation
						JOINT lelbow
						{
							OFFSET 0.255332 -0.015649 -0.022946
							CHANNELS 3 Zrotation Yrotation Xrotation
							JOINT lwrist
							{
								OFFSET 0.265709 0.012698 -0.007375
								CHANNELS 3 Zrotation Yrotation Xrotation
								End Site
								{
									OFFSET 0.000000 0.000000 0.000000
								}
							}
						}
					}
				}
				JOINT rclavicle
				{
					OFFSET -0.082954 0.112472 -0.023707
					CHANNELS 3 Zrotation Yrotation Xrotation
					JOINT rshoulder
					{
						OFFSET -0.113228 0.046853 -0.008472
						CHANNELS 3 Zrotation Yrotation Xrotation
						JOINT relbow
						{
							OFFSET -0.260127 -0.014369 -0.031269
							CHANNELS 3 Zrotation Yrotation Xrotation
							JOINT rwrist
							{
								OFFSET -0.269108 0.006794 -0.006027
								CHANNELS 3 Zrotation Yrotation Xrotation
								End Site
								{
									OFFSET 0.000000 0.000000 0.000000
								}
							}
						}
					}
				}
			}
		}
	}
}
MOTION
Frames: 10
Frame Time: 0.033333
2.588627 0.438743 1.012974 -80.964026 -0.477885 93.621397 -1.373402 -3.804568 -10.961098 -5.222896 3.358620 12.174451 3.665582 10.518166 -10.823644 0.000000 -0.000000 0.000000 -8.711795 1.456562 -29.766934 -2.395000 -12.801646 36.101535 8.608076 -9.892128 -5.428838 0.000000 -0.000000 0.000000 0.654281 -1.513349 11.552717 0.016891 2.443933 -9.647990 -0.554247 -0.281004 3.661805 5.505551 33.801890 -6.622653 0.263404 32.929816 12.161325 -21.882998 7.449241 -2.578089 -49.659308 -9.652707 17.313720 3.294233 -76.692762 24.744501 -17.402108 -17.668891 -11.016572 21.421339 -5.507148 -0.064389 49.753844 9.235083 16.804528 -10.732382 25.437014 -2.382575 25.835424 6.426340 -13.483807 
2.580838 0.439290 1.012886 -81.595031 -0.327936 93.181666 -1.361438 -2.865519 -9.438447 -5.031877 2.881615 11.416825 3.192798 10.640574 -11.051675 0.000000 -0.000000 0.000000 -8.530183 1.463504 -30.303862 -2.142610 -12.904015 33.810368 9.173446 -9.896925 -4.381302 0.000000 -0.000000 0.000000 0.622265 -1.565998 12.801252 -0.055846 2.518943 -10.537048 -0.441962 -0.551475 3.934375 5.647649 32.317899 -7.070732 0.514098 31.003671 13.752107 -21.878153 7.410933 -2.526811 -50.581212 -10.432727 17.534917 2.801673 -76.063617 24.793821 -17.167750 -18.104841 -11.566349 21.038956 -5.305822 -0.105030 50.124139 9.232367 17.163260 -11.327005 25.491000 -3.206172 25.695933 6.648312 -14.035323 
2.572674 0.440457 1.012463 -82.063253 -0.150739 93.332991 -1.129523 -2.456316 -8.681252 -4.872485 2.972081 10.864602 3.052400 10.601299 -11.374156 0.000000 -0.000000 0.000000 -8.506603 1.525893 -31.271943 -1.778889 -13.667068 30.993764 9.372185 -9.900452 -2.686347 0.000000 -0.000000 0.000000 0.547935 -1.743945 13.081932 -0.012336 2.564643 -10.881687 -0.390941 -0.734128 4.005383 5.558002 29.688621 -7.815782 0.869612 27.827943 15.453035 -21.927896 7.288273 -2.419016 -51.257563 -11.298820 17.916606 2.729663 -75.255528 24.009037 -17.093337 -18.628680 -12.263752 21.051020 -5.173798 -0.267506 50.176946 9.373977 17.279776 -11.582435 25.301744 -3.698570 25.470237 6.736488 -13.892757 
2.561081 0.442449 1.011748 -82.631423 0.045015 93.621929 -0.843882 -1.987590 -7.820280 -4.603763 3.159644 10.322340 2.790516 10.512678 -11.904889 0.000000 -0.000000 0.000000 -8.351148 1.405231 -32.199087 -1.306509 -14.866463 26.776854 9.603071 -9.930554 -0.076329 0.000000 -0.000000 0.000000 0.469236 -1.874285 13.235611 0.047563 2.528054 -11.162347 -0.416225 -0.979065 4.076721 5.171660 25.087388 -8.664424 0.893578 22.372364 16.607971 -21.908032 7.076434 -2.248505 -51.994553 -12.464309 18.435527 2.531577 -73.779075 23.103134 -17.307604 -19.155789 -13.017506 21.255947 -4.857569 -0.668730 50.179595 9.568506 17.323394 -11.680990 24.810508 -4.030729 25.268083 6.643502 -13.438982 
2.553184 0.443928 1.011211 -82.969072 0.130578 93.825960 -0.700712 -1.672428 -7.308140 -4.388528 3.295058 10.080520 2.575081 10.396796 -12.303457 0.000000 -0.000000 0.000000 -8.100202 1.283280 -32.538229 -1.243714 -15.745109 24.018582 9.717525 -10.066771 1.596437 0.000000 -0.000000 0.000000 0.397816 -1.910098 13.224160 0.071960 2.459896 -11.239074 -0.428973 -1.147437 4.186388 4.792285 21.860217 -8.987765 0.645557 18.726870 16.470634 -21.861100 6.952882 -2.237064 -52.415745 -13.158681 18.716036 2.180432 -72.623034 22.870309 -17.466755 -19.351591 -13.315976 21.361238 -4.671311 -1.077900 50.218433 9.650256 17.359480 -11.616266 24.591976 -4.032698 25.160247 6.485264 -13.111484 
2.541427 0.446292 1.010405 -83.402889 0.205447 94.124333 -0.518095 -1.218157 -6.613967 -4.081173 3.462845 9.882089 2.266754 10.200497 -12.952460 0.000000 -0.000000 0.000000 -7.624744 1.075136 -32.754784 -1.327561 -16.943779 20.338443 9.876542 -10.419212 3.800811 0.000000 -0.000000 0.000000 0.259359 -1.928134 13.105289 0.102386 2.304652 -11.231943 -0.432034 -1.394303 4.342176 4.288328 17.345356 -9.127209 0.220364 13.912036 15.507676 -21.812122 6.837578 -2.289663 -52.917823 -14.029335 18.965299 1.495976 -70.688550 22.789041 -17.694718 -19.470135 -13.562904 21.477445 -4.477564 -1.692112 50.306025 9.724306 17.387837 -11.454889 24.514076 -3.935092 25.000827 6.244682 -12.701159 
2.528004 0.449312 1.009306 -83.784743 0.279901 94.450483 -0.213398 -0.632964 -5.921000 -3.874130 3.533899 9.857972 1.887552 9.952045 -13.717003 0.000000 -0.000000 0.000000 -7.008304 0.847461 -32.679095 -1.291462 -17.857251 16.782525 9.942190 -10.734936 5.158630 0.000000 -0.000000 0.000000 0.079804 -1.936628 12.858235 0.175552 2.080035 -11.091428 -0.383966 -1.683893 4.434267 3.923547 13.091674 -9.052659 -0.112055 9.434636 14.303644 -21.851377 6.688582 -2.283290 -53.250579 -14.696072 18.984149 0.940734 -68.523858 22.726673 -17.920657 -19.308819 -13.330844 21.557448 -4.320036 -2.228623 50.354718 9.659898 17.312756 -11.258912 24.902000 -3.721271 24.796349 6.033732 -12.482652 
2.512433 0.453469 1.007707 -84.478807 0.480456 94.843611 0.478952 0.253198 -5.181296 -3.959789 3.624561 9.946751 1.467022 9.724747 -14.597018 0.000000 -0.000000 0.000000 -6.076117 1.030291 -32.398518 -1.063975 -17.930695 13.667494 9.848734 -10.720341 5.133254 0.000000 -0.000000 0.000000 -0.150806 -1.765409 12.306884 0.358020 1.964558 -10.728263 -0.237290 -1.990301 4.447577 3.797044 9.447700 -9.004639 -0.485026 5.310255 13.562378 -21.946522 6.488300 -2.132897 -53.370120 -15.016952 18.827938 0.824019 -66.410902 22.796961 -18.371979 -18.940034 -12.161314 21.616449 -4.154048 -2.526629 50.320573 9.482907 17.128098 -11.055080 25.656584 -3.314709 24.473238 6.046439 -12.629114 
2.496085 0.457835 1.005747 -84.905449 0.646786 95.189266 0.970860 0.746322 -4.631004 -3.750405 3.558212 10.544334 1.067873 9.791417 -15.514474 0.000000 -0.000000 0.000000 -5.187976 1.291428 -31.916289 -0.733296 -17.607742 12.056185 9.933753 -10.355123 4.790089 0.000000 -0.000000 0.000000 -0.179249 -1.736113 12.206167 0.502358 1.754325 -10.703006 -0.191592 -2.255143 4.345107 3.756167 6.426548 -9.312770 -0.778676 1.664895 13.495516 -22.014613 6.155242 -1.928345 -53.534147 -15.050681 18.557628 0.940148 -63.983454 22.997124 -19.258451 -18.314878 -10.372230 21.543259 -3.908548 -2.737860 50.447655 9.047370 16.854881 -10.975899 26.600620 -2.889519 24.159251 6.165879 -12.822232 
2.472808 0.464478 1.002632 -85.517297 0.948271 95.579899 1.650257 1.011121 -3.857129 -3.388047 3.424802 11.601885 0.670090 10.340270 -16.772984 0.000000 -0.000000 0.000000 -4.041684 2.360346 -31.156113 -0.311785 -16.246303 12.402249 9.812891 -9.355436 5.336996 0.000000 -0.000000 0.000000 -0.226350 -1.732425 11.921930 0.782107 1.569238 -10.491214 -0.124274 -2.412529 4.063244 3.753362 3.665426 -9.549296 -1.106150 -1.681476 13.699112 -22.145535 5.642334 -1.652516 -53.698524 -14.747177 18.143703 1.585345 -60.578335 22.614654 -20.216374 -17.195741 -8.001857 21.429777 -3.542318 -2.753522 50.742838 8.413803 16.639479 -10.866837 27.630147 -2.146857 23.769490 6.316964 -13.274722 
